HIERARCHY
ROOT mixamorig:Hips
{
	OFFSET -0.000008 104.274872 1.554316
	CHANNELS 6 Xposition Yposition Zposition Xrotation Yrotation Zrotation
	JOINT mixamorig:Spine
	{
		OFFSET -0.000005 10.181595 0.131519
		CHANNELS 6 Xposition Yposition Zposition Xrotation Yrotation Zrotation
		JOINT mixamorig:Spine1
		{
			OFFSET -0.000000 9.893959 -1.470707
			CHANNELS 6 Xposition Yposition Zposition Xrotation Yrotation Zrotation
			JOINT mixamorig:Spine2
			{
				OFFSET -0.000000 9.220757 -1.370641
				CHANNELS 6 Xposition Yposition Zposition Xrotation Yrotation Zrotation
				JOINT mixamorig:Neck
				{
					OFFSET 0.000001 16.740417 -2.049036
					CHANNELS 6 Xposition Yposition Zposition Xrotation Yrotation Zrotation
					JOINT mixamorig:Head
					{
						OFFSET 0.000000 9.617874 1.685006
						CHANNELS 6 Xposition Yposition Zposition Xrotation Yrotation Zrotation
						JOINT mixamorig:HeadTop_End
						{
							OFFSET 0.000002 22.037354 7.501101
							CHANNELS 6 Xposition Yposition Zposition Xrotation Yrotation Zrotation
							End Site
							{
								OFFSET 0.000168 2310.654297 -282.823242
							}
						}
					}
				}
				JOINT mixamorig:RightShoulder
				{
					OFFSET -4.569970 11.014908 -2.160885
					CHANNELS 6 Xposition Yposition Zposition Xrotation Yrotation Zrotation
					JOINT mixamorig:RightArm
					{
						OFFSET -10.592851 -0.524811 -2.232101
						CHANNELS 6 Xposition Yposition Zposition Xrotation Yrotation Zrotation
						JOINT mixamorig:RightForeArm
						{
							OFFSET -27.841511 0.000031 -0.000004
							CHANNELS 6 Xposition Yposition Zposition Xrotation Yrotation Zrotation
							JOINT mixamorig:RightHand
							{
								OFFSET -28.328831 -0.000015 0.000015
								CHANNELS 6 Xposition Yposition Zposition Xrotation Yrotation Zrotation
								JOINT mixamorig:RightHandThumb1
								{
									OFFSET -2.464806 -1.573990 2.681852
									CHANNELS 6 Xposition Yposition Zposition Xrotation Yrotation Zrotation
									JOINT mixamorig:RightHandThumb2
									{
										OFFSET -3.215179 -1.872803 1.924282
										CHANNELS 6 Xposition Yposition Zposition Xrotation Yrotation Zrotation
										JOINT mixamorig:RightHandThumb3
										{
											OFFSET -2.654831 -1.527969 1.512609
											CHANNELS 6 Xposition Yposition Zposition Xrotation Yrotation Zrotation
											JOINT mixamorig:RightHandThumb4
											{
												OFFSET -2.018814 -1.152008 1.108052
												CHANNELS 6 Xposition Yposition Zposition Xrotation Yrotation Zrotation
												End Site
												{
													OFFSET -188.809540 -114.533607 132.431396
												}
											}
										}
									}
								}
								JOINT mixamorig:RightHandIndex1
								{
									OFFSET -9.108284 -0.517868 2.259835
									CHANNELS 6 Xposition Yposition Zposition Xrotation Yrotation Zrotation
									JOINT mixamorig:RightHandIndex2
									{
										OFFSET -3.699989 0.000000 0.001215
										CHANNELS 6 Xposition Yposition Zposition Xrotation Yrotation Zrotation
										JOINT mixamorig:RightHandIndex3
										{
											OFFSET -2.850006 0.000031 -0.000522
											CHANNELS 6 Xposition Yposition Zposition Xrotation Yrotation Zrotation
											JOINT mixamorig:RightHandIndex4
											{
												OFFSET -2.772186 -0.000015 -0.000020
												CHANNELS 6 Xposition Yposition Zposition Xrotation Yrotation Zrotation
												End Site
												{
													OFFSET -277.218445 0.000000 -0.050231
												}
											}
										}
									}
								}
								JOINT mixamorig:RightHandMiddle1
								{
									OFFSET -9.532516 -0.000031 -0.000023
									CHANNELS 6 Xposition Yposition Zposition Xrotation Yrotation Zrotation
									JOINT mixamorig:RightHandMiddle2
									{
										OFFSET -3.700005 -0.000015 0.003713
										CHANNELS 6 Xposition Yposition Zposition Xrotation Yrotation Zrotation
										JOINT mixamorig:RightHandMiddle3
										{
											OFFSET -2.949974 0.000015 -0.002054
											CHANNELS 6 Xposition Yposition Zposition Xrotation Yrotation Zrotation
											JOINT mixamorig:RightHandMiddle4
											{
												OFFSET -2.946640 0.000000 -0.000156
												CHANNELS 6 Xposition Yposition Zposition Xrotation Yrotation Zrotation
												End Site
												{
													OFFSET -294.664337 0.000000 -0.113670
												}
											}
										}
									}
								}
								JOINT mixamorig:RightHandRing1
								{
									OFFSET -9.103600 -0.043076 -1.865134
									CHANNELS 6 Xposition Yposition Zposition Xrotation Yrotation Zrotation
									JOINT mixamorig:RightHandRing2
									{
										OFFSET -3.379288 0.000000 -0.001055
										CHANNELS 6 Xposition Yposition Zposition Xrotation Yrotation Zrotation
										JOINT mixamorig:RightHandRing3
										{
											OFFSET -2.889687 -0.000015 0.000379
											CHANNELS 6 Xposition Yposition Zposition Xrotation Yrotation Zrotation
											JOINT mixamorig:RightHandRing4
											{
												OFFSET -2.638809 -0.000015 0.000941
												CHANNELS 6 Xposition Yposition Zposition Xrotation Yrotation Zrotation
												End Site
												{
													OFFSET -263.880371 0.000000 0.516020
												}
											}
										}
									}
								}
								JOINT mixamorig:RightHandPinky1
								{
									OFFSET -8.076683 -0.486710 -3.806280
									CHANNELS 6 Xposition Yposition Zposition Xrotation Yrotation Zrotation
									JOINT mixamorig:RightHandPinky2
									{
										OFFSET -3.600014 -0.000015 -0.003747
										CHANNELS 6 Xposition Yposition Zposition Xrotation Yrotation Zrotation
										JOINT mixamorig:RightHandPinky3
										{
											OFFSET -2.099983 0.000000 -0.005739
											CHANNELS 6 Xposition Yposition Zposition Xrotation Yrotation Zrotation
											JOINT mixamorig:RightHandPinky4
											{
												OFFSET -2.115768 -0.000031 -0.003680
												CHANNELS 6 Xposition Yposition Zposition Xrotation Yrotation Zrotation
												End Site
												{
													OFFSET -211.577087 0.000000 -0.350686
												}
											}
										}
									}
								}
							}
						}
					}
				}
				JOINT mixamorig:LeftShoulder
				{
					OFFSET 4.570447 11.014725 -2.160855
					CHANNELS 6 Xposition Yposition Zposition Xrotation Yrotation Zrotation
					JOINT mixamorig:LeftArm
					{
						OFFSET 10.592371 -0.524597 -2.232119
						CHANNELS 6 Xposition Yposition Zposition Xrotation Yrotation Zrotation
						JOINT mixamorig:LeftForeArm
						{
							OFFSET 27.841532 -0.000031 0.000026
							CHANNELS 6 Xposition Yposition Zposition Xrotation Yrotation Zrotation
							JOINT mixamorig:LeftHand
							{
								OFFSET 28.328846 -0.000061 0.000022
								CHANNELS 6 Xposition Yposition Zposition Xrotation Yrotation Zrotation
								JOINT mixamorig:LeftHandThumb1
								{
									OFFSET 2.466141 -1.576172 2.681732
									CHANNELS 6 Xposition Yposition Zposition Xrotation Yrotation Zrotation
									JOINT mixamorig:LeftHandThumb2
									{
										OFFSET 3.217812 -1.872070 1.916482
										CHANNELS 6 Xposition Yposition Zposition Xrotation Yrotation Zrotation
										JOINT mixamorig:LeftHandThumb3
										{
											OFFSET 2.656029 -1.528778 1.514513
											CHANNELS 6 Xposition Yposition Zposition Xrotation Yrotation Zrotation
											JOINT mixamorig:LeftHandThumb4
											{
												OFFSET 2.020889 -1.154053 1.115139
												CHANNELS 6 Xposition Yposition Zposition Xrotation Yrotation Zrotation
												End Site
												{
													OFFSET 190.885437 -115.081749 130.048782
												}
											}
										}
									}
								}
								JOINT mixamorig:LeftHandIndex1
								{
									OFFSET 9.109314 -0.518021 2.259871
									CHANNELS 6 Xposition Yposition Zposition Xrotation Yrotation Zrotation
									JOINT mixamorig:LeftHandIndex2
									{
										OFFSET 3.699989 0.000000 -0.000322
										CHANNELS 6 Xposition Yposition Zposition Xrotation Yrotation Zrotation
										JOINT mixamorig:LeftHandIndex3
										{
											OFFSET 2.850006 0.000000 0.000352
											CHANNELS 6 Xposition Yposition Zposition Xrotation Yrotation Zrotation
											JOINT mixamorig:LeftHandIndex4
											{
												OFFSET 2.774864 -0.000031 -0.000027
												CHANNELS 6 Xposition Yposition Zposition Xrotation Yrotation Zrotation
												End Site
												{
													OFFSET 277.486267 0.000000 -0.009857
												}
											}
										}
									}
								}
								JOINT mixamorig:LeftHandMiddle1
								{
									OFFSET 9.533394 0.000061 0.000044
									CHANNELS 6 Xposition Yposition Zposition Xrotation Yrotation Zrotation
									JOINT mixamorig:LeftHandMiddle2
									{
										OFFSET 3.699989 -0.000015 -0.000231
										CHANNELS 6 Xposition Yposition Zposition Xrotation Yrotation Zrotation
										JOINT mixamorig:LeftHandMiddle3
										{
											OFFSET 2.949997 -0.000015 -0.000059
											CHANNELS 6 Xposition Yposition Zposition Xrotation Yrotation Zrotation
											JOINT mixamorig:LeftHandMiddle4
											{
												OFFSET 2.952896 0.000031 0.000063
												CHANNELS 6 Xposition Yposition Zposition Xrotation Yrotation Zrotation
												End Site
												{
													OFFSET 295.289337 0.000000 0.022810
												}
											}
										}
									}
								}
								JOINT mixamorig:LeftHandRing1
								{
									OFFSET 9.104523 -0.042999 -1.865074
									CHANNELS 6 Xposition Yposition Zposition Xrotation Yrotation Zrotation
									JOINT mixamorig:LeftHandRing2
									{
										OFFSET 3.150009 -0.000031 0.000043
										CHANNELS 6 Xposition Yposition Zposition Xrotation Yrotation Zrotation
										JOINT mixamorig:LeftHandRing3
										{
											OFFSET 2.949982 -0.000015 0.000040
											CHANNELS 6 Xposition Yposition Zposition Xrotation Yrotation Zrotation
											JOINT mixamorig:LeftHandRing4
											{
												OFFSET 2.644348 0.000000 0.000057
												CHANNELS 6 Xposition Yposition Zposition Xrotation Yrotation Zrotation
												End Site
												{
													OFFSET 264.434631 0.000000 0.012105
												}
											}
										}
									}
								}
								JOINT mixamorig:LeftHandPinky1
								{
									OFFSET 8.077789 -0.486847 -3.806259
									CHANNELS 6 Xposition Yposition Zposition Xrotation Yrotation Zrotation
									JOINT mixamorig:LeftHandPinky2
									{
										OFFSET 3.599953 0.000031 0.014727
										CHANNELS 6 Xposition Yposition Zposition Xrotation Yrotation Zrotation
										JOINT mixamorig:LeftHandPinky3
										{
											OFFSET 2.100021 0.000015 0.007705
											CHANNELS 6 Xposition Yposition Zposition Xrotation Yrotation Zrotation
											JOINT mixamorig:LeftHandPinky4
											{
												OFFSET 2.125504 0.000031 0.007517
												CHANNELS 6 Xposition Yposition Zposition Xrotation Yrotation Zrotation
												End Site
												{
													OFFSET 212.550781 0.000000 0.625752
												}
											}
										}
									}
								}
							}
						}
					}
				}
			}
		}
	}
	JOINT mixamorig:RightUpLeg
	{
		OFFSET -8.207787 -6.751648 -1.599560
		CHANNELS 6 Xposition Yposition Zposition Xrotation Yrotation Zrotation
		JOINT mixamorig:RightLeg
		{
			OFFSET -0.000002 -44.370117 0.345942
			CHANNELS 6 Xposition Yposition Zposition Xrotation Yrotation Zrotation
			JOINT mixamorig:RightFoot
			{
				OFFSET 0.000003 -44.423679 -3.043532
				CHANNELS 6 Xposition Yposition Zposition Xrotation Yrotation Zrotation
				JOINT mixamorig:RightToeBase
				{
					OFFSET -0.000002 -8.728671 10.710558
					CHANNELS 6 Xposition Yposition Zposition Xrotation Yrotation Zrotation
					JOINT mixamorig:RightToe_End
					{
						OFFSET -0.000001 -0.000679 9.278119
						CHANNELS 6 Xposition Yposition Zposition Xrotation Yrotation Zrotation
						End Site
						{
							OFFSET 0.000000 -0.067690 927.812134
						}
					}
				}
			}
		}
	}
	JOINT mixamorig:LeftUpLeg
	{
		OFFSET 8.207793 -6.751686 -1.599556
		CHANNELS 6 Xposition Yposition Zposition Xrotation Yrotation Zrotation
		JOINT mixamorig:LeftLeg
		{
			OFFSET -0.000004 -44.370014 0.346954
			CHANNELS 6 Xposition Yposition Zposition Xrotation Yrotation Zrotation
			JOINT mixamorig:LeftFoot
			{
				OFFSET -0.000001 -44.423672 -3.044401
				CHANNELS 6 Xposition Yposition Zposition Xrotation Yrotation Zrotation
				JOINT mixamorig:LeftToeBase
				{
					OFFSET -0.000002 -8.728669 10.710558
					CHANNELS 6 Xposition Yposition Zposition Xrotation Yrotation Zrotation
					JOINT mixamorig:LeftToe_End
					{
						OFFSET -0.000003 -0.000679 9.278133
						CHANNELS 6 Xposition Yposition Zposition Xrotation Yrotation Zrotation
						End Site
						{
							OFFSET 0.000000 -0.068021 927.813477
						}
					}
				}
			}
		}
	}
}
MOTION
Frames: 3
Frame Time: 0.033333
0.000006 104.270477 1.554256 0.000010 0.000003 -0.000113 -0.000005 10.181587 0.131522 0.000001 -0.000003 0.000084 -0.000000 9.893967 -1.470711 0.000001 0.000000 -0.000000 -0.000000 9.220802 -1.370642 0.000000 -0.000000 -0.000000 0.000001 16.740433 -2.049030 0.000000 -0.000000 -0.000000 0.000000 9.617859 1.685014 0.000000 0.000000 0.000000 0.000002 22.037384 7.501101 0.000000 -0.000000 0.000000 -4.569968 11.014880 -2.160881 0.000008 0.000001 -0.000038 -10.592752 -0.524844 -2.231721 83.232952 70.532338 -64.274430 -27.841501 0.000002 0.000573 32.013062 99.160509 -37.230583 -28.328835 0.000020 0.000032 -0.000322 -0.000044 0.000006 -2.464650 -1.574224 2.682145 84.043763 209.246656 143.075866 -3.214983 -1.873058 1.924543 262.016876 -31.198668 -39.778533 -2.654714 -1.528288 1.512858 272.540940 -22.715640 -391.714354 -2.018835 -1.152013 1.108071 -0.000002 0.000000 0.000005 -9.108315 -0.517867 2.260390 28.886014 118.848311 -47.148868 -3.700018 0.000027 0.001764 208.200381 68.359641 -220.573883 -2.850108 -0.000013 -0.000064 83.216634 114.305982 -107.967908 -2.772162 -0.000015 -0.000018 -0.000000 0.000001 -0.000001 -9.532464 -0.000025 0.000565 183.762278 48.885221 -188.503044 -3.700023 0.000016 0.004265 157.721472 48.342238 -132.416495 -2.950102 0.000008 -0.001576 181.489068 75.348502 -181.920572 -2.946626 0.000013 -0.000156 -0.000000 0.000001 0.000000 -9.103566 -0.043059 -1.864552 171.631876 47.619601 -161.083400 -3.379249 0.000304 -0.000586 146.261876 -2.057004 6.730177 -2.889716 0.000012 0.000934 164.528916 10.603471 -69.024635 -2.638801 0.000000 0.000930 0.000002 -0.000003 -0.000003 -8.076714 -0.486646 -3.805739 150.729844 34.480595 -99.425179 -3.599784 0.000338 -0.003340 139.768838 -18.865481 49.120446 -2.099712 0.000361 -0.005261 162.687757 -12.249341 70.594452 -2.115758 -0.000056 -0.003684 -0.000001 -0.000006 0.000002 4.570446 11.014691 -2.160851 -0.000018 0.000010 -0.000021 10.592501 -0.524583 -2.232350 28.896194 -78.636794 23.831963 27.841839 -0.000019 -0.000146 169.906119 -75.696705 167.031784 28.328829 -0.000044 0.000021 0.000020 -0.000089 0.000001 2.466213 -1.576012 2.681624 -70.006010 212.146564 214.943745 3.217861 -1.871971 1.916457 118.184525 -33.750803 53.409381 2.656077 -1.528758 1.514523 108.377835 -40.286641 65.278208 2.020890 -1.154059 1.115146 0.000002 0.000005 0.000006 9.109339 -0.517960 2.259776 39.912286 -12.585359 4.580975 3.700025 -0.000006 -0.000347 15.889353 -16.762947 2.359911 2.850010 -0.000002 0.000369 -0.672905 -11.974647 -0.070684 2.774896 -0.000029 -0.000034 -0.000000 -0.000003 0.000003 9.533432 0.000097 -0.000053 38.966916 -10.112279 3.582584 3.700009 -0.000014 -0.000211 0.818126 -12.251864 0.087544 2.950027 -0.000001 0.000013 -15.392412 -11.148375 -1.511337 2.952855 -0.000013 0.000061 -0.000001 -0.000002 -0.000002 9.104542 -0.042960 -1.865185 38.798903 -10.015693 3.535566 3.150013 -0.000004 0.000054 181.978410 186.282153 -179.891309 2.949978 0.000025 0.000110 163.019253 183.402833 -180.508308 2.644327 0.000032 0.000061 0.000003 -0.000003 -0.000000 8.077801 -0.486784 -3.806366 42.143411 -10.164240 4.152760 3.599959 0.000050 0.014677 196.539076 184.835861 -179.217334 2.100001 -0.000006 0.007731 353.898192 0.825504 0.019487 2.125507 -0.000017 0.007530 0.000000 -0.000000 0.000002 -8.207786 -6.751667 -1.599560 -0.077001 -0.000003 0.000080 -0.000002 -44.370110 0.345938 0.153719 -0.000000 -0.000000 0.000000 -44.423679 -3.043532 -0.076700 0.000000 -0.000002 -0.000006 -8.728667 10.710559 -0.000009 -0.000000 -0.000000 -0.000001 -0.000679 9.278123 0.000000 -0.000000 -0.000000 8.207792 -6.751710 -1.599556 -0.074518 -0.000003 0.000081 -0.000002 -44.370014 0.346960 0.148822 0.000002 0.000000 -0.000001 -44.423664 -3.044403 -0.074314 0.000000 -0.000002 -0.000004 -8.728671 10.710558 0.000007 -0.000000 -0.000000 0.000000 -0.000680 9.278137 -0.000000 0.000000 -0.000001 
0.000006 104.270477 1.554256 0.000010 0.000003 -0.000113 -0.000005 10.181587 0.131522 0.000001 -0.000003 0.000084 -0.000000 9.893967 -1.470711 0.000001 0.000000 -0.000000 -0.000000 9.220802 -1.370642 0.000000 -0.000000 -0.000000 0.000001 16.740433 -2.049030 0.000000 -0.000000 -0.000000 0.000000 9.617859 1.685014 0.000000 0.000000 0.000000 0.000002 22.037384 7.501101 0.000000 -0.000000 0.000000 -4.569968 11.014880 -2.160881 0.000008 0.000001 -0.000038 -10.592754 -0.524851 -2.231719 82.849901 70.727620 -64.113381 -27.841509 -0.000015 0.000570 34.099320 99.384320 -39.752148 -28.328833 0.000007 0.000025 -0.000321 -0.000044 0.000006 -2.464655 -1.574206 2.682165 80.199036 207.287266 141.712615 -3.215020 -1.873064 1.924536 261.799484 -28.817442 -38.951561 -2.654740 -1.528274 1.512879 273.526892 -20.266146 -390.432355 -2.018834 -1.151992 1.108060 0.000002 -0.000001 0.000002 -9.108296 -0.517839 2.260387 33.839435 120.271667 -55.865603 -3.700011 0.000022 0.001779 208.626817 67.214000 -221.982077 -2.850082 0.000008 -0.000041 64.207145 114.080401 -88.111148 -2.772162 0.000001 -0.000020 -0.000000 0.000001 -0.000001 -9.532495 -0.000022 0.000538 190.052254 55.903124 -199.008777 -3.699971 0.000001 0.004297 173.874268 51.921104 -167.280608 -2.950076 -0.000035 -0.001555 213.815725 72.692167 -224.885877 -2.946620 -0.000013 -0.000154 0.000001 -0.000001 -0.000002 -9.103623 -0.043051 -1.864588 163.522652 58.699882 -151.049934 -3.379282 0.000014 -0.000494 162.254299 12.476333 -70.109822 -2.889646 0.000069 0.000966 224.227857 26.378676 59.967838 -2.638811 -0.000028 0.000941 0.000000 -0.000003 -0.000002 -8.076729 -0.486607 -3.805761 142.656424 41.865361 -96.753140 -3.599965 0.000311 -0.003328 140.262388 -2.879999 8.746048 -2.099859 0.000205 -0.005138 197.136335 11.347208 66.497404 -2.115776 -0.000038 -0.003679 0.000003 0.000000 -0.000003 4.570446 11.014691 -2.160851 -0.000018 0.000010 -0.000021 10.592500 -0.524588 -2.232349 29.293104 -78.797625 24.231156 27.841837 -0.000002 -0.000152 170.369548 -76.186389 167.733013 28.328825 -0.000013 0.000021 0.000021 -0.000089 -0.000001 2.466217 -1.576015 2.681626 -68.492556 211.762051 214.085886 3.217849 -1.871949 1.916450 120.792237 -32.807038 52.252330 2.656087 -1.528747 1.514538 111.261814 -39.022575 64.853179 2.020895 -1.154035 1.115145 0.000001 0.000007 0.000004 9.109335 -0.517990 2.259770 40.508735 -12.542959 4.639572 3.700015 -0.000003 -0.000342 17.475749 -16.185791 2.508171 2.850017 -0.000021 0.000378 0.563759 -10.650597 0.052443 2.774884 -0.000043 -0.000032 -0.000002 0.000001 0.000001 9.533433 0.000079 -0.000056 39.679339 -9.634595 3.480103 3.700019 -0.000024 -0.000212 1.143716 -10.932127 0.109203 2.950008 -0.000018 -0.000003 -15.533855 -9.435327 -1.289918 2.952859 -0.000012 0.000054 -0.000001 0.000001 -0.000000 9.104548 -0.042979 -1.865179 39.773090 -9.527184 3.453892 3.150015 0.000017 0.000052 182.346831 184.570098 -179.906254 2.949981 0.000005 0.000098 162.377147 181.262484 -180.195922 2.644331 0.000029 0.000054 0.000000 -0.000002 0.000001 8.077804 -0.486811 -3.806371 42.708869 -9.721171 4.037096 3.599966 0.000027 0.014668 197.895101 183.631275 -179.347995 2.100008 0.000009 0.007741 353.017344 2.905537 0.142302 2.125510 -0.000030 0.007518 -0.000002 -0.000001 0.000000 -8.207786 -6.751667 -1.599560 -0.077001 -0.000003 0.000080 -0.000002 -44.370110 0.345938 0.153719 -0.000000 -0.000000 0.000000 -44.423679 -3.043532 -0.076700 0.000000 -0.000002 -0.000006 -8.728667 10.710559 -0.000009 -0.000000 -0.000000 -0.000001 -0.000679 9.278123 0.000000 -0.000000 -0.000000 8.207792 -6.751710 -1.599556 -0.074518 -0.000003 0.000081 -0.000002 -44.370014 0.346960 0.148822 0.000002 0.000000 -0.000001 -44.423664 -3.044403 -0.074314 0.000000 -0.000002 -0.000004 -8.728671 10.710558 0.000007 -0.000000 -0.000000 0.000000 -0.000680 9.278137 -0.000000 0.000000 -0.000001 
0.000006 104.270477 1.554256 0.000010 0.000003 -0.000113 -0.000005 10.181587 0.131522 0.000001 -0.000003 0.000084 -0.000000 9.893967 -1.470711 0.000001 0.000000 -0.000000 -0.000000 9.220802 -1.370642 0.000000 -0.000000 -0.000000 0.000001 16.740433 -2.049030 0.000000 -0.000000 -0.000000 0.000000 9.617859 1.685014 0.000000 0.000000 0.000000 0.000002 22.037384 7.501101 0.000000 -0.000000 0.000000 -4.569968 11.014880 -2.160881 0.000008 0.000001 -0.000038 -10.592753 -0.524851 -2.231724 82.687814 70.484103 -63.734722 -27.841499 0.000018 0.000578 32.817246 99.619074 -38.435790 -28.328829 0.000006 0.000017 -0.000321 -0.000045 0.000007 -2.464651 -1.574243 2.682151 81.090123 209.352606 141.396841 -3.215006 -1.873065 1.924541 262.264511 -30.608007 -39.400137 -2.654752 -1.528277 1.512854 275.071252 -20.461239 -389.772504 -2.018827 -1.152019 1.108063 -0.000002 -0.000003 0.000002 -9.108297 -0.517867 2.260392 39.828657 122.297228 -66.688512 -3.699995 0.000032 0.001768 196.524131 67.862403 -204.332417 -2.850080 0.000031 -0.000015 54.225883 109.944947 -72.294096 -2.772177 0.000014 -0.000016 -0.000002 0.000001 0.000002 -9.532503 -0.000047 0.000543 188.345854 58.169900 -195.130582 -3.699994 -0.000007 0.004288 167.927441 52.777237 -155.757041 -2.950071 -0.000006 -0.001587 228.554577 73.235815 -242.504009 -2.946625 0.000002 -0.000146 0.000002 0.000000 -0.000000 -9.103657 -0.043042 -1.864605 161.012530 67.337332 -151.755575 -3.379270 -0.000008 -0.000491 159.988698 20.231254 -90.724153 -2.889725 0.000005 0.000930 241.367028 31.296289 50.557166 -2.638828 -0.000006 0.000939 -0.000001 -0.000002 0.000001 -8.076765 -0.486591 -3.805795 128.223319 46.404537 -82.638309 -3.599997 0.000334 -0.003431 113.302559 2.234690 -2.901577 -2.099880 -0.000056 -0.005147 159.404567 36.278256 238.739864 -2.115773 -0.000041 -0.003681 -0.000001 0.000005 -0.000005 4.570446 11.014691 -2.160851 -0.000018 0.000010 -0.000021 10.592500 -0.524580 -2.232349 29.307963 -78.513981 24.125104 27.841843 -0.000016 -0.000151 170.576284 -75.182720 167.778256 28.328829 -0.000044 0.000024 0.000021 -0.000089 0.000001 2.466210 -1.576042 2.681608 -71.524033 211.437043 209.415239 3.217855 -1.871962 1.916433 121.380548 -32.076170 46.667069 2.656078 -1.528745 1.514507 113.058086 -37.758795 62.032946 2.020895 -1.154068 1.115150 0.000002 0.000006 0.000004 9.109344 -0.517977 2.259767 42.666132 -12.064773 4.721615 3.700021 -0.000028 -0.000344 17.951306 -16.626084 2.648471 2.850015 -0.000006 0.000359 1.072200 -11.257747 0.105562 2.774872 -0.000015 -0.000023 -0.000000 0.000005 -0.000000 9.533426 0.000084 -0.000059 40.161287 -8.479701 3.101591 3.700016 -0.000008 -0.000217 2.474005 -11.147535 0.241197 2.950010 -0.000021 0.000002 -15.188707 -10.259989 -1.371648 2.952872 -0.000033 0.000063 -0.000001 -0.000000 -0.000002 9.104556 -0.042973 -1.865179 40.753929 -8.562125 3.186134 3.150002 -0.000005 0.000030 182.887058 184.208672 -179.893796 2.949987 -0.000007 0.000093 164.487307 181.533437 -180.209063 2.644319 0.000016 0.000055 -0.000001 -0.000001 -0.000000 8.077803 -0.486788 -3.806379 44.541101 -8.946558 3.904461 3.599953 0.000035 0.014672 197.800735 182.173726 -179.585249 2.100005 -0.000016 0.007720 354.478676 3.701767 0.145932 2.125504 -0.000000 0.007511 0.000002 -0.000000 -0.000000 -8.207786 -6.751667 -1.599560 -0.077001 -0.000003 0.000080 -0.000002 -44.370110 0.345938 0.153719 -0.000000 -0.000000 0.000000 -44.423679 -3.043532 -0.076700 0.000000 -0.000002 -0.000006 -8.728667 10.710559 -0.000009 -0.000000 -0.000000 -0.000001 -0.000679 9.278123 0.000000 -0.000000 -0.000000 8.207792 -6.751710 -1.599556 -0.074518 -0.000003 0.000081 -0.000002 -44.370014 0.346960 0.148822 0.000002 0.000000 -0.000001 -44.423664 -3.044403 -0.074314 0.000000 -0.000002 -0.000004 -8.728671 10.710558 0.000007 -0.000000 -0.000000 0.000000 -0.000680 9.278137 -0.000000 0.000000 -0.000001 
